<?xml version="1.0" encoding="utf-8"?>
<!-- Generator: Adobe Illustrator 16.0.1, SVG Export Plug-In . SVG Version: 6.00 Build 0)  -->
<!DOCTYPE svg PUBLIC "-//W3C//DTD SVG 1.1//EN" "http://www.w3.org/Graphics/SVG/1.1/DTD/svg11.dtd">
<svg version="1.1" id="Layer_1" xmlns="http://www.w3.org/2000/svg" xmlns:xlink="http://www.w3.org/1999/xlink" x="0px" y="0px"
	 width="320px" height="2757.488px" viewBox="0 0 320 2757.488" enable-background="new 0 0 320 2757.488" xml:space="preserve">
<g>
	<text transform="matrix(1 0 0 1 6.0225 71.3633)" font-family="'DE3DisplayEgyptian'" font-size="15.2194">2015–2016</text>
	<text transform="matrix(1 0 0 1 6.0225 435.2676)" font-family="'DE3DisplayEgyptian'" font-size="15.2194">2014–2015</text>
	<text transform="matrix(1 0 0 1 6.0225 677.8711)" font-family="'DE3DisplayEgyptian'" font-size="15.2194">2013–2014</text>
	<text transform="matrix(1 0 0 1 6.0225 1041.7754)" font-family="'DE5DisplayEgyptianSemiBold'" font-size="16">2012–2013</text>
	<text transform="matrix(1 0 0 1 6.0225 1284.3789)" font-family="'DE3DisplayEgyptian'" font-size="15.2194">2011–2012</text>
	<text transform="matrix(1 0 0 1 6.0225 1526.9824)" font-family="'DE3DisplayEgyptian'" font-size="15.2194">2010–2011</text>
	<g>
		<line fill="none" stroke="#EFEFEF" stroke-width="0.6571" x1="0" y1="49.658" x2="320" y2="49.658"/>
		<line fill="none" stroke="#EFEFEF" stroke-width="0.6571" x1="0" y1="49.658" x2="320" y2="49.658"/>
		<line fill="none" stroke="#EFEFEF" stroke-width="0.6571" x1="0" y1="49.658" x2="320" y2="49.658"/>
		<line fill="none" stroke="#EFEFEF" stroke-width="0.6571" x1="0" y1="49.658" x2="320" y2="49.658"/>
		<line fill="none" stroke="#EFEFEF" stroke-width="0.6571" x1="0" y1="49.658" x2="320" y2="49.658"/>
		<line fill="none" stroke="#EFEFEF" stroke-width="0.6571" x1="0" y1="49.658" x2="320" y2="49.658"/>
		<line fill="none" stroke="#EFEFEF" stroke-width="0.6571" x1="0" y1="49.658" x2="320" y2="49.658"/>
		<line fill="none" stroke="#EFEFEF" stroke-width="0.6571" x1="0" y1="49.658" x2="320" y2="49.658"/>
		<line fill="none" stroke="#EFEFEF" stroke-width="0.6571" x1="0" y1="49.658" x2="320" y2="49.658"/>
		<line fill="none" stroke="#EFEFEF" stroke-width="0.6571" x1="0" y1="49.658" x2="320" y2="49.658"/>
		<line fill="none" stroke="#EFEFEF" stroke-width="0.6571" x1="0" y1="49.658" x2="320" y2="49.658"/>
		<line fill="none" stroke="#EFEFEF" stroke-width="0.6571" x1="0" y1="49.658" x2="320" y2="49.658"/>
		<line fill="none" stroke="#EFEFEF" stroke-width="0.6571" x1="0" y1="49.658" x2="320" y2="49.658"/>
		<line fill="none" stroke="#EFEFEF" stroke-width="0.6571" x1="0" y1="49.658" x2="320" y2="49.658"/>
		<line fill="none" stroke="#EFEFEF" stroke-width="0.6571" x1="0" y1="49.658" x2="320" y2="49.658"/>
		<line fill="none" stroke="#EFEFEF" stroke-width="0.6571" x1="0" y1="413.562" x2="320" y2="413.562"/>
		<line fill="none" stroke="#EFEFEF" stroke-width="0.6571" x1="0" y1="413.562" x2="320" y2="413.562"/>
		<line fill="none" stroke="#EFEFEF" stroke-width="0.6571" x1="0" y1="413.562" x2="320" y2="413.562"/>
		<line fill="none" stroke="#EFEFEF" stroke-width="0.6571" x1="0" y1="413.562" x2="320" y2="413.562"/>
		<line fill="none" stroke="#EFEFEF" stroke-width="0.6571" x1="0" y1="413.562" x2="320" y2="413.562"/>
		<line fill="none" stroke="#EFEFEF" stroke-width="0.6571" x1="0" y1="413.562" x2="320" y2="413.562"/>
		<line fill="none" stroke="#EFEFEF" stroke-width="0.6571" x1="0" y1="413.562" x2="320" y2="413.562"/>
		<line fill="none" stroke="#EFEFEF" stroke-width="0.6571" x1="0" y1="413.562" x2="320" y2="413.562"/>
		<line fill="none" stroke="#EFEFEF" stroke-width="0.6571" x1="0" y1="413.562" x2="320" y2="413.562"/>
		<line fill="none" stroke="#EFEFEF" stroke-width="0.6571" x1="0" y1="413.562" x2="320" y2="413.562"/>
		<line fill="none" stroke="#EFEFEF" stroke-width="0.6571" x1="0" y1="413.562" x2="320" y2="413.562"/>
		<line fill="none" stroke="#EFEFEF" stroke-width="0.6571" x1="0" y1="413.562" x2="320" y2="413.562"/>
		<line fill="none" stroke="#EFEFEF" stroke-width="0.6571" x1="0" y1="413.562" x2="320" y2="413.562"/>
		<line fill="none" stroke="#EFEFEF" stroke-width="0.6571" x1="0" y1="413.562" x2="320" y2="413.562"/>
		<line fill="none" stroke="#EFEFEF" stroke-width="0.6571" x1="0" y1="413.562" x2="320" y2="413.562"/>
		<line fill="none" stroke="#EFEFEF" stroke-width="0.6571" x1="0" y1="656.164" x2="320" y2="656.164"/>
		<line fill="none" stroke="#EFEFEF" stroke-width="0.6571" x1="0" y1="656.164" x2="320" y2="656.164"/>
		<line fill="none" stroke="#EFEFEF" stroke-width="0.6571" x1="0" y1="656.164" x2="320" y2="656.164"/>
		<line fill="none" stroke="#EFEFEF" stroke-width="0.6571" x1="0" y1="656.164" x2="320" y2="656.164"/>
		<line fill="none" stroke="#EFEFEF" stroke-width="0.6571" x1="0" y1="656.164" x2="320" y2="656.164"/>
		<line fill="none" stroke="#EFEFEF" stroke-width="0.6571" x1="0" y1="656.164" x2="320" y2="656.164"/>
		<line fill="none" stroke="#EFEFEF" stroke-width="0.6571" x1="0" y1="656.164" x2="320" y2="656.164"/>
		<line fill="none" stroke="#EFEFEF" stroke-width="0.6571" x1="0" y1="656.164" x2="320" y2="656.164"/>
		<line fill="none" stroke="#EFEFEF" stroke-width="0.6571" x1="0" y1="656.164" x2="320" y2="656.164"/>
		<line fill="none" stroke="#EFEFEF" stroke-width="0.6571" x1="0" y1="656.164" x2="320" y2="656.164"/>
		<line fill="none" stroke="#EFEFEF" stroke-width="0.6571" x1="0" y1="656.164" x2="320" y2="656.164"/>
		<line fill="none" stroke="#EFEFEF" stroke-width="0.6571" x1="0" y1="656.164" x2="320" y2="656.164"/>
		<line fill="none" stroke="#EFEFEF" stroke-width="0.6571" x1="0" y1="656.164" x2="320" y2="656.164"/>
		<line fill="none" stroke="#EFEFEF" stroke-width="0.6571" x1="0" y1="656.164" x2="320" y2="656.164"/>
		<line fill="none" stroke="#EFEFEF" stroke-width="0.6571" x1="0" y1="656.164" x2="320" y2="656.164"/>
		<line fill="none" stroke="#EFEFEF" stroke-width="0.6571" x1="0" y1="1020.07" x2="320" y2="1020.07"/>
		<line fill="none" stroke="#EFEFEF" stroke-width="0.6571" x1="0" y1="1020.07" x2="320" y2="1020.07"/>
		<line fill="none" stroke="#EFEFEF" stroke-width="0.6571" x1="0" y1="1020.07" x2="320" y2="1020.07"/>
		<line fill="none" stroke="#EFEFEF" stroke-width="0.6571" x1="0" y1="1020.07" x2="320" y2="1020.07"/>
		<line fill="none" stroke="#EFEFEF" stroke-width="0.6571" x1="0" y1="1020.07" x2="320" y2="1020.07"/>
		<line fill="none" stroke="#EFEFEF" stroke-width="0.6571" x1="0" y1="1020.07" x2="320" y2="1020.07"/>
		<line fill="none" stroke="#EFEFEF" stroke-width="0.6571" x1="0" y1="1020.07" x2="320" y2="1020.07"/>
		<line fill="none" stroke="#EFEFEF" stroke-width="0.6571" x1="0" y1="1020.07" x2="320" y2="1020.07"/>
		<line fill="none" stroke="#EFEFEF" stroke-width="0.6571" x1="0" y1="1020.07" x2="320" y2="1020.07"/>
		<line fill="none" stroke="#EFEFEF" stroke-width="0.6571" x1="0" y1="1020.07" x2="320" y2="1020.07"/>
		<line fill="none" stroke="#EFEFEF" stroke-width="0.6571" x1="0" y1="1020.07" x2="320" y2="1020.07"/>
		<line fill="none" stroke="#EFEFEF" stroke-width="0.6571" x1="0" y1="1020.07" x2="320" y2="1020.07"/>
		<line fill="none" stroke="#EFEFEF" stroke-width="0.6571" x1="0" y1="1020.07" x2="320" y2="1020.07"/>
		<line fill="none" stroke="#EFEFEF" stroke-width="0.6571" x1="0" y1="1020.07" x2="320" y2="1020.07"/>
		<line fill="none" stroke="#EFEFEF" stroke-width="0.6571" x1="0" y1="1020.07" x2="320" y2="1020.07"/>
		<line fill="none" stroke="#EFEFEF" stroke-width="0.6571" x1="0" y1="1262.674" x2="320" y2="1262.674"/>
		<line fill="none" stroke="#EFEFEF" stroke-width="0.6571" x1="0" y1="1262.674" x2="320" y2="1262.674"/>
		<line fill="none" stroke="#EFEFEF" stroke-width="0.6571" x1="0" y1="1262.674" x2="320" y2="1262.674"/>
		<line fill="none" stroke="#EFEFEF" stroke-width="0.6571" x1="0" y1="1262.674" x2="320" y2="1262.674"/>
		<line fill="none" stroke="#EFEFEF" stroke-width="0.6571" x1="0" y1="1262.674" x2="320" y2="1262.674"/>
		<line fill="none" stroke="#EFEFEF" stroke-width="0.6571" x1="0" y1="1262.674" x2="320" y2="1262.674"/>
		<line fill="none" stroke="#EFEFEF" stroke-width="0.6571" x1="0" y1="1262.674" x2="320" y2="1262.674"/>
		<line fill="none" stroke="#EFEFEF" stroke-width="0.6571" x1="0" y1="1262.674" x2="320" y2="1262.674"/>
		<line fill="none" stroke="#EFEFEF" stroke-width="0.6571" x1="0" y1="1262.674" x2="320" y2="1262.674"/>
		<line fill="none" stroke="#EFEFEF" stroke-width="0.6571" x1="0" y1="1262.674" x2="320" y2="1262.674"/>
		<line fill="none" stroke="#EFEFEF" stroke-width="0.6571" x1="0" y1="1262.674" x2="320" y2="1262.674"/>
		<line fill="none" stroke="#EFEFEF" stroke-width="0.6571" x1="0" y1="1262.674" x2="320" y2="1262.674"/>
		<line fill="none" stroke="#EFEFEF" stroke-width="0.6571" x1="0" y1="1262.674" x2="320" y2="1262.674"/>
		<line fill="none" stroke="#EFEFEF" stroke-width="0.6571" x1="0" y1="1262.674" x2="320" y2="1262.674"/>
		<line fill="none" stroke="#EFEFEF" stroke-width="0.6571" x1="0" y1="1262.674" x2="320" y2="1262.674"/>
		<line fill="none" stroke="#EFEFEF" stroke-width="0.6571" x1="0" y1="1505.275" x2="320" y2="1505.275"/>
		<line fill="none" stroke="#EFEFEF" stroke-width="0.6571" x1="0" y1="1505.275" x2="320" y2="1505.275"/>
		<line fill="none" stroke="#EFEFEF" stroke-width="0.6571" x1="0" y1="1505.275" x2="320" y2="1505.275"/>
		<line fill="none" stroke="#EFEFEF" stroke-width="0.6571" x1="0" y1="1505.275" x2="320" y2="1505.275"/>
		<line fill="none" stroke="#EFEFEF" stroke-width="0.6571" x1="0" y1="1505.275" x2="320" y2="1505.275"/>
		<line fill="none" stroke="#EFEFEF" stroke-width="0.6571" x1="0" y1="1505.275" x2="320" y2="1505.275"/>
		<line fill="none" stroke="#EFEFEF" stroke-width="0.6571" x1="0" y1="1505.275" x2="320" y2="1505.275"/>
		<line fill="none" stroke="#EFEFEF" stroke-width="0.6571" x1="0" y1="1505.275" x2="320" y2="1505.275"/>
		<line fill="none" stroke="#EFEFEF" stroke-width="0.6571" x1="0" y1="1505.275" x2="320" y2="1505.275"/>
		<line fill="none" stroke="#EFEFEF" stroke-width="0.6571" x1="0" y1="1505.275" x2="320" y2="1505.275"/>
		<line fill="none" stroke="#EFEFEF" stroke-width="0.6571" x1="0" y1="1505.275" x2="320" y2="1505.275"/>
		<line fill="none" stroke="#EFEFEF" stroke-width="0.6571" x1="0" y1="1505.275" x2="320" y2="1505.275"/>
		<line fill="none" stroke="#EFEFEF" stroke-width="0.6571" x1="0" y1="1505.275" x2="320" y2="1505.275"/>
		<line fill="none" stroke="#EFEFEF" stroke-width="0.6571" x1="0" y1="1505.275" x2="320" y2="1505.275"/>
		<line fill="none" stroke="#EFEFEF" stroke-width="0.6571" x1="0" y1="1505.275" x2="320" y2="1505.275"/>
	</g>
</g>
<g transform="translate(320,50)rotate(90)">
	<g>
		<path fill="#FFFFFF" stroke="#B5180B" stroke-width="0.7509" stroke-miterlimit="10" d="M31.589,160.239l182.177-12.855v25.715
			L31.589,205.187V160.239z"/>
		<path fill="#FFFFFF" stroke="#005689" stroke-width="0.7509" stroke-miterlimit="10" d="M31.589,117.384l182.177,30v25.715
			L31.589,160.243V117.384z"/>
		<path fill="#FFFFFF" stroke="#005689" stroke-width="0.7509" stroke-miterlimit="10" d="M215.67,147.381
			c90.134,0,90.134-83.809,180.27-83.809v25.715c-90.135,0-90.135,83.809-180.27,83.809V147.381"/>
		<path fill="#FFFFFF" stroke="#B5180B" stroke-width="0.7509" stroke-miterlimit="10" d="M215.67,147.381
			c90.134,0,90.134,79.045,180.27,79.045v42.856c-90.135,0-90.135-96.189-180.27-96.189V147.381"/>
		<path fill="#FFFFFF" stroke="#B5180B" stroke-width="0.7509" stroke-miterlimit="10" d="M397.846,226.429
			c90.135,0,90.135-162.856,180.272-162.856v25.715c-90.134,0-90.134,179.998-180.272,179.998V226.429"/>
		<path fill="#FFFFFF" stroke="#005689" stroke-width="0.7509" stroke-miterlimit="10" d="M397.846,63.572
			c90.135,0,90.135,162.856,180.272,162.856v42.856c-90.134,0-90.134-179.998-180.272-179.998V63.572"/>
		<path fill="#FFFFFF" stroke="#B5180B" stroke-width="0.7509" stroke-miterlimit="10" d="M580.023,63.572
			c90.134,0,90.134,65.787,180.271,65.787v25.714c-90.134,0-90.134-65.786-180.271-65.786V63.572"/>
		<path fill="#FFFFFF" stroke="#005689" stroke-width="0.7509" stroke-miterlimit="10" d="M580.023,226.429
			c90.134,0,90.134-49.521,180.271-49.521v25.715c-90.134,0-90.134,66.666-180.271,66.666V226.429"/>
		<path fill="#FFFFFF" stroke="#005689" stroke-width="0.7509" stroke-miterlimit="10" d="M762.197,176.907
			c90.134,0,90.134-104.762,180.271-104.762v8.573c-90.134,0-90.134,121.901-180.271,121.901V176.907"/>
		<path fill="#FFFFFF" stroke="#B5180B" stroke-width="0.7509" stroke-miterlimit="10" d="M760.292,129.359
			c90.135,0,92.039,105.639,182.173,105.639v25.715c-90.134,0-92.038-105.64-182.173-105.64l1.905-7.692"/>
		<path fill="#FFFFFF" stroke="#B5180B" stroke-width="0.7509" stroke-miterlimit="10" d="M944.374,234.998
			c90.138,0,90.138-162.856,180.271-162.856v8.573c-90.134,0-90.134,179.998-180.271,179.998V234.998"/>
		
			<linearGradient id="SVGID_1_" gradientUnits="userSpaceOnUse" x1="1256.8096" y1="-280.3594" x2="1258.7144" y2="-278.4546" gradientTransform="matrix(94.6428 0 0 103.5 -117999.8906 29085.75)">
			<stop  offset="1" style="stop-color:#005689;stop-opacity:0.8"/>
			<stop  offset="1" style="stop-color:#005689;stop-opacity:0.6"/>
			<stop  offset="1" style="stop-color:#005689;stop-opacity:0.8"/>
		</linearGradient>
		<path fill="url(#SVGID_1_)" fill-opacity="0.5" stroke="#005689" stroke-width="0.9525" stroke-opacity="0" d="M944.374,72.145
			c90.138,0,90.138,154.284,180.271,154.284v42.856c-90.134,0-90.134-188.567-180.271-188.567V72.145"/>
		
			<linearGradient id="SVGID_2_" gradientUnits="userSpaceOnUse" x1="1257.6035" y1="-270.9502" x2="1259.5085" y2="-269.0452" gradientTransform="matrix(95.6429 0 0 22.5 -119166.3203 6324.75)">
			<stop  offset="1" style="stop-color:#005689;stop-opacity:0.8"/>
			<stop  offset="1" style="stop-color:#005689;stop-opacity:0.6"/>
			<stop  offset="1" style="stop-color:#005689;stop-opacity:0.8"/>
		</linearGradient>
		<path fill="url(#SVGID_2_)" fill-opacity="0.5" stroke="#005689" stroke-width="0.9525" stroke-opacity="0" d="M1124.646,226.429
			l182.175,8.572v25.715l-182.175,8.572V226.429z"/>
		
			<linearGradient id="SVGID_3_" gradientUnits="userSpaceOnUse" x1="1257.7178" y1="-243.4688" x2="1259.6224" y2="-241.5638" gradientTransform="matrix(95.6429 0 0 4.5 -119166.3203 1167.75)">
			<stop  offset="0" style="stop-color:#B5180B;stop-opacity:0.5"/>
			<stop  offset="0.5" style="stop-color:#B5180B;stop-opacity:0.2"/>
			<stop  offset="1" style="stop-color:#B5180B;stop-opacity:0.5"/>
		</linearGradient>
		<path fill="url(#SVGID_3_)" fill-opacity="0.5" stroke="#FF9B0B" stroke-width="0.9525" stroke-opacity="0" d="M1124.646,72.145
			h182.175v8.573h-182.175V72.145z"/>
		
			<linearGradient id="SVGID_4_" gradientUnits="userSpaceOnUse" x1="1258.6982" y1="-271.1396" x2="1260.6033" y2="-269.235" gradientTransform="matrix(95.6429 0 0 22.5 -119070.6953 6324.75)">
			<stop  offset="1" style="stop-color:#005689;stop-opacity:0.8"/>
			<stop  offset="1" style="stop-color:#005689;stop-opacity:0.6"/>
			<stop  offset="1" style="stop-color:#005689;stop-opacity:0.8"/>
		</linearGradient>
		<path fill="url(#SVGID_4_)" fill-opacity="0.5" stroke="#005689" stroke-width="0.9525" stroke-opacity="0" d="M1306.82,234.998
			l182.172-8.572v42.856l-182.172-8.572V234.998z"/>
		
			<linearGradient id="SVGID_5_" gradientUnits="userSpaceOnUse" x1="1258.7754" y1="-269.6152" x2="1260.6803" y2="-267.7106" gradientTransform="matrix(95.6429 0 0 13.5 -119070.6953 3701.25)">
			<stop  offset="0" style="stop-color:#B5180B;stop-opacity:0.5"/>
			<stop  offset="0.5" style="stop-color:#B5180B;stop-opacity:0.2"/>
			<stop  offset="1" style="stop-color:#B5180B;stop-opacity:0.5"/>
		</linearGradient>
		<path fill="url(#SVGID_5_)" fill-opacity="0.5" stroke="#FF9B0B" stroke-width="0.9525" stroke-opacity="0" d="M1306.82,72.145
			l182.172-8.573v25.715l-182.172-8.572V72.145z"/>
		
			<linearGradient id="SVGID_6_" gradientUnits="userSpaceOnUse" x1="1259.6152" y1="-274.7539" x2="1261.5199" y2="-272.8492" gradientTransform="matrix(95.6428 0 0 22.5 -118974.9531 6234.75)">
			<stop  offset="0" style="stop-color:#B5180B;stop-opacity:0.5"/>
			<stop  offset="0.5" style="stop-color:#B5180B;stop-opacity:0.2"/>
			<stop  offset="1" style="stop-color:#B5180B;stop-opacity:0.5"/>
		</linearGradient>
		<path fill="url(#SVGID_6_)" fill-opacity="0.5" stroke="#FF9B0B" stroke-width="0.9525" stroke-opacity="0" d="M1488.995,63.572
			L1671.172,55v42.857l-182.177-8.573V63.572L1488.995,63.572z"/>
		
			<linearGradient id="SVGID_7_" gradientUnits="userSpaceOnUse" x1="1259.5361" y1="-277.2852" x2="1261.4407" y2="-275.3806" gradientTransform="matrix(95.6428 0 0 49.5 -118974.9531 13925.25)">
			<stop  offset="1" style="stop-color:#005689;stop-opacity:0.8"/>
			<stop  offset="1" style="stop-color:#005689;stop-opacity:0.6"/>
			<stop  offset="1" style="stop-color:#005689;stop-opacity:0.8"/>
		</linearGradient>
		<path fill="url(#SVGID_7_)" fill-opacity="0.5" stroke="#005689" stroke-width="0.9525" stroke-opacity="0" d="M1488.995,226.429
			L1670.032,222l1.14,73l-182.177-25.715V226.429L1488.995,226.429z"/>
		
			<linearGradient id="SVGID_8_" gradientUnits="userSpaceOnUse" x1="1260.5078" y1="-276.9355" x2="1262.2034" y2="-275.2397" gradientTransform="matrix(95.6429 0 0 49.5 -118879.3828 13925.25)">
			<stop  offset="1" style="stop-color:#005689;stop-opacity:0.8"/>
			<stop  offset="1" style="stop-color:#005689;stop-opacity:0.6"/>
			<stop  offset="1" style="stop-color:#005689;stop-opacity:0.8"/>
		</linearGradient>
		<path fill="url(#SVGID_8_)" fill-opacity="0.5" stroke="#005689" stroke-width="0.9525" stroke-opacity="0" d="M1670.032,222
			l181.712,1.919l1.6,71.081h-182.172L1670.032,222z"/>
		
			<linearGradient id="SVGID_9_" gradientUnits="userSpaceOnUse" x1="1260.4219" y1="-274.6504" x2="1262.3267" y2="-272.7458" gradientTransform="matrix(95.6429 0 0 22.5 -118879.3828 6234.75)">
			<stop  offset="0" style="stop-color:#B5180B;stop-opacity:0.5"/>
			<stop  offset="0.5" style="stop-color:#B5180B;stop-opacity:0.2"/>
			<stop  offset="1" style="stop-color:#B5180B;stop-opacity:0.5"/>
		</linearGradient>
		<path fill="url(#SVGID_9_)" fill-opacity="0.5" stroke="#FF9B0B" stroke-width="0.9525" stroke-opacity="0" d="M1671.172,55.003
			h182.172V97.86h-182.172V55.003z"/>
		
			<linearGradient id="SVGID_10_" gradientUnits="userSpaceOnUse" x1="1261.417" y1="-276.915" x2="1263.0599" y2="-275.2721" gradientTransform="matrix(95.6428 0 0 49.5 -118783.6406 13925.25)">
			<stop  offset="1" style="stop-color:#005689;stop-opacity:0.8"/>
			<stop  offset="1" style="stop-color:#005689;stop-opacity:0.6"/>
			<stop  offset="1" style="stop-color:#005689;stop-opacity:0.8"/>
		</linearGradient>
		<path fill="url(#SVGID_10_)" fill-opacity="0.5" stroke="#005689" stroke-width="0.9525" stroke-opacity="0" d="M1851.744,223.919
			l183.78,2.509v42.856L1853.347,295L1851.744,223.919z"/>
		
			<linearGradient id="SVGID_11_" gradientUnits="userSpaceOnUse" x1="1261.2324" y1="-274.5596" x2="1263.1375" y2="-272.6546" gradientTransform="matrix(95.6428 0 0 22.5 -118783.6406 6234.75)">
			<stop  offset="0" style="stop-color:#B5180B;stop-opacity:0.5"/>
			<stop  offset="0.5" style="stop-color:#B5180B;stop-opacity:0.2"/>
			<stop  offset="1" style="stop-color:#B5180B;stop-opacity:0.5"/>
		</linearGradient>
		<path fill="url(#SVGID_11_)" fill-opacity="0.5" stroke="#FF9B0B" stroke-width="0.9525" stroke-opacity="0" d="M1853.347,55.003
			l182.178,8.573V89.29l-182.178,8.573V55.003z"/>
		
			<linearGradient id="SVGID_12_" gradientUnits="userSpaceOnUse" x1="1262.4072" y1="-279.6074" x2="1264.0684" y2="-277.9463" gradientTransform="matrix(94.6428 0 0 66.5 -117426.0156 18647.25)">
			<stop  offset="0" style="stop-color:#B5180B;stop-opacity:0.5"/>
			<stop  offset="0.5" style="stop-color:#B5180B;stop-opacity:0.2"/>
			<stop  offset="1" style="stop-color:#B5180B;stop-opacity:0.5"/>
		</linearGradient>
		<path fill="url(#SVGID_12_)" fill-opacity="0.5" stroke="#FF9B0B" stroke-width="0.9525" stroke-opacity="0" d="M2037.426,63.572
			c90.134,0,92.037,61.739,182.177,61.739V156.5c-90.137,0-92.043-67.213-182.177-67.213V63.572"/>
		
			<linearGradient id="SVGID_13_" gradientUnits="userSpaceOnUse" x1="1262.583" y1="-276.3115" x2="1263.694" y2="-275.2004" gradientTransform="matrix(94.6428 0 0 39.5 -117426.0156 11101.75)">
			<stop  offset="1" style="stop-color:#005689;stop-opacity:0.5"/>
			<stop  offset="1" style="stop-color:#005689;stop-opacity:0.3"/>
			<stop  offset="1" style="stop-color:#005689;stop-opacity:0.5"/>
		</linearGradient>
		<path fill="url(#SVGID_13_)" fill-opacity="0.5" stroke="#005689" stroke-width="0.9525" stroke-opacity="0" d="M2037.426,226.429
			c90.134,0,90.452-71.231,180.592-71.231v29.757c-90.14,0-90.458,84.334-180.592,84.334V226.429"/>
		
			<linearGradient id="SVGID_14_" gradientUnits="userSpaceOnUse" x1="1263.2637" y1="-279.5635" x2="1265.2002" y2="-277.6269" gradientTransform="matrix(94.6429 0 0 77.5 -117330.5078 21784.25)">
			<stop  offset="0" style="stop-color:#B5180B;stop-opacity:0.8"/>
			<stop  offset="0.5" style="stop-color:#B5180B;stop-opacity:0.6"/>
			<stop  offset="1" style="stop-color:#B5180B;stop-opacity:0.8"/>
		</linearGradient>
		<path fill="url(#SVGID_14_)" fill-opacity="0.5" stroke="#FF9B0B" stroke-width="0.9525" stroke-opacity="0" d="M2219.603,125.311
			c90.137,0,90.138,92.545,180.269,92.545v59.999c-90.135,0-57.045-122.658-147.179-122.658l-33.09-24.961"/>
		
			<linearGradient id="SVGID_15_" gradientUnits="userSpaceOnUse" x1="1264.4717" y1="-279.4053" x2="1265.0156" y2="-278.8613" gradientTransform="matrix(94.6429 0 0 104.5 -117330.5078 29358.75)">
			<stop  offset="1" style="stop-color:#005689;stop-opacity:0.3"/>
			<stop  offset="1" style="stop-color:#005689;stop-opacity:0.1"/>
			<stop  offset="1" style="stop-color:#005689;stop-opacity:0.3"/>
		</linearGradient>
		<path fill="url(#SVGID_15_)" fill-opacity="0.5" stroke="#005689" stroke-width="0.9525" stroke-opacity="0" d="M2252.692,155.197
			c90.137,0,57.048-100.194,147.179-100.194V97.86c-90.135,0-91.72,87.094-181.854,87.094l1.585,9.095"/>
		
			<linearGradient id="SVGID_16_" gradientUnits="userSpaceOnUse" x1="1263.9688" y1="-274.54" x2="1265.8735" y2="-272.6351" gradientTransform="matrix(95.6428 0 0 22.5 -118496.7031 6234.75)">
			<stop  offset="1" style="stop-color:#005689;stop-opacity:0.3"/>
			<stop  offset="1" style="stop-color:#005689;stop-opacity:0.1"/>
			<stop  offset="1" style="stop-color:#005689;stop-opacity:0.3"/>
		</linearGradient>
		<path fill="url(#SVGID_16_)" fill-opacity="0.5" stroke="#005689" stroke-width="0.9525" stroke-opacity="0" d="M2399.874,55.003
			l182.175,8.573V89.29l-182.175,8.573V55.003z"/>
		
			<linearGradient id="SVGID_17_" gradientUnits="userSpaceOnUse" x1="1264.0957" y1="-276.1602" x2="1266.0002" y2="-274.2556" gradientTransform="matrix(95.6428 0 0 40.5 -118496.7031 11391.75)">
			<stop  offset="0" style="stop-color:#B5180B;stop-opacity:0.8"/>
			<stop  offset="0.5" style="stop-color:#B5180B;stop-opacity:0.6"/>
			<stop  offset="0.9923" style="stop-color:#B5180B;stop-opacity:0.8"/>
		</linearGradient>
		<path fill="url(#SVGID_17_)" fill-opacity="0.5" stroke="#FF9B0B" stroke-width="0.9525" stroke-opacity="0" d="M2399.874,217.856
			l182.175-8.572v77.144l-182.175-8.572V217.856z"/>
	</g>
	<g>
		<g transform="translate(0, 32.75)">
			<circle fill="#B51800" stroke="#800C0C" stroke-width="1.9046" stroke-opacity="0" cx="31.589" cy="151.006" r="21.428"/>
		</g>
		<g transform="translate(0, 32.75)">
			<circle fill="#005689" stroke="#005689" stroke-width="1.9046" stroke-opacity="0" cx="31.589" cy="106.061" r="21.427"/>
		</g>
		<g transform="translate(95.64285714285714, 37.25)">
			<circle fill="#005689" stroke="#005689" stroke-width="1.9046" stroke-opacity="0" cx="118.123" cy="122.99" r="12.856"/>
		</g>
		<g transform="translate(95.64285714285714, 37.25)">
			<circle fill="#B51800" stroke="#800C0C" stroke-width="1.9046" stroke-opacity="0" cx="118.123" cy="122.99" r="12.856"/>
		</g>
		<g transform="translate(191.28571428571428, 78.75)">
			<circle fill="#B51800" stroke="#800C0C" stroke-width="1.9046" stroke-opacity="0" cx="204.655" cy="169.107" r="21.428"/>
		</g>
		<g transform="translate(191.28571428571428, -6.750000000000001)">
			<circle fill="#005689" stroke="#005689" stroke-width="1.9046" stroke-opacity="0" cx="204.655" cy="83.181" r="12.859"/>
		</g>
		<g transform="translate(286.92857142857144, -6.750000000000001)">
			<circle fill="#B51800" stroke="#800C0C" stroke-width="1.9046" stroke-opacity="0" cx="291.189" cy="83.181" r="12.859"/>
		</g>
		<g transform="translate(286.92857142857144, 78.75)">
			<circle fill="#005689" stroke="#005689" stroke-width="1.9046" stroke-opacity="0" cx="291.189" cy="169.107" r="21.428"/>
		</g>
		<g transform="translate(382.57142857142856, 52.75)">
			<circle fill="#005689" stroke="#005689" stroke-width="1.9046" stroke-opacity="0" cx="377.722" cy="137.013" r="12.856"/>
		</g>
		<g transform="translate(382.57142857142856, 37.25)">
			<circle fill="#B51800" stroke="#800C0C" stroke-width="1.9046" stroke-opacity="0" cx="377.722" cy="104.968" r="12.856"/>
		</g>
		<g transform="translate(478.21428571428567, 83.25)">
			<circle fill="#B51800" stroke="#800C0C" stroke-width="1.9046" stroke-opacity="0" cx="464.253" cy="164.607" r="12.859"/>
		</g>
		<g transform="translate(478.21428571428567, -2.25)">
			<circle fill="#005689" stroke="#005689" stroke-width="1.9046" stroke-opacity="0" cx="464.253" cy="78.681" r="4.286"/>
		</g>
		<g transform="translate(573.8571428571429, 78.75)">
			<circle fill="#005689" stroke="#005689" stroke-width="1.9046" stroke-opacity="0" cx="550.788" cy="169.107" r="21.428"/>
		</g>
		<g transform="translate(573.8571428571429, -2.25)">
			<circle fill="#B51800" stroke="#800C0C" stroke-width="1.9046" stroke-opacity="0" cx="550.788" cy="78.681" r="4.286"/>
		</g>
		<g transform="translate(669.5, 83.25)">
			<path fill="#005689" stroke="#005689" stroke-width="1.9046" stroke-opacity="0" d="M637.32,151.748
				c7.102,0,12.856,5.757,12.856,12.86c0,7.101-5.755,12.858-12.856,12.858c-7.104,0-12.859-5.757-12.859-12.858
				C624.461,157.505,630.216,151.748,637.32,151.748z"/>
		</g>
		<g transform="translate(669.5, -2.25)">
			<path fill="#B51800" stroke="#800C0C" stroke-width="1.9046" stroke-opacity="0" d="M637.32,74.395
				c2.367,0,4.285,1.918,4.285,4.286s-1.918,4.287-4.285,4.287c-2.37,0-4.289-1.92-4.289-4.287S634.95,74.395,637.32,74.395z"/>
		</g>
		<g transform="translate(765.1428571428571, -6.750000000000001)">
			<circle fill="#B51800" stroke="#800C0C" stroke-width="1.9046" stroke-opacity="0" cx="723.852" cy="83.181" r="12.859"/>
		</g>
		<g transform="translate(765.1428571428571, 78.75)">
			<circle fill="#005689" stroke="#005689" stroke-width="1.9046" stroke-opacity="0" cx="723.852" cy="169.107" r="21.428"/>
		</g>
		<g transform="translate(860.7857142857142, 65.25)">
			<path fill="#005689" stroke="#005689" stroke-width="1.5352" stroke-opacity="0" d="M809.247,156.75
				c20.986,0,37.998,17.013,37.998,38.001c0,20.986-17.012,37.999-37.998,37.999c-20.989,0-38.001-17.013-38.001-37.999
				C771.246,173.763,788.257,156.75,809.247,156.75z"/>
		</g>
		<g transform="translate(860.7857142857142, -11.25)">
			<circle fill="#B51800" stroke="#800C0C" stroke-width="1.9046" stroke-opacity="0" cx="810.39" cy="87.681" r="21.428"/>
		</g>
		<g transform="translate(956.4285714285713, 65.25)">
			<circle fill="#005689" stroke="#005689" stroke-width="1.4359" stroke-opacity="0" cx="895.316" cy="194.21" r="35.54"/>
		</g>
		<g transform="translate(956.4285714285713, -11.25)">
			<circle fill="#B51800" stroke="#800C0C" stroke-width="1.9046" stroke-opacity="0" cx="896.918" cy="87.681" r="21.428"/>
		</g>
		<g transform="translate(1052.0714285714284, -6.750000000000001)">
			<circle fill="#B51800" stroke="#800C0C" stroke-width="1.9046" stroke-opacity="0" cx="983.45" cy="83.181" r="12.859"/>
		</g>
		<g transform="translate(1052.0714285714284, 78.75)">
			<path fill="#005689" stroke="#005689" stroke-width="1.9046" stroke-opacity="0" d="M983.45,147.679
				c11.836,0,21.431,9.595,21.431,21.429c0,11.834-9.595,21.427-21.431,21.427c-11.833,0-21.428-9.593-21.428-21.427
				C962.022,157.273,971.617,147.679,983.45,147.679z"/>
		</g>
		<g transform="translate(1147.7142857142858, 28.25)">
			<path fill="#B51800" stroke="#800C0C" stroke-width="1.9046" stroke-opacity="0" d="M1104.978,126.947h-60.001
				c0,0,0-30.002,30.001-30.002C1106.561,96.945,1104.978,126.947,1104.978,126.947z"/>
		</g>
		<g transform="translate(1147.7142857142858, 28.25)">
			<g>
				<g>
					<path fill="#005689" d="M1044.992,126.945h60.001c0,0,0,30.002-30.001,30.002
						C1043.409,156.947,1044.992,126.945,1044.992,126.945z"/>
					<path opacity="0" fill="none" stroke="#005689" stroke-width="1.9046" d="M1044.992,126.945h60.001c0,0,0,30.002-30.001,30.002
						C1043.409,156.947,1044.992,126.945,1044.992,126.945z"/>
				</g>
			</g>
		</g>
		<g transform="translate(1243.357142857143, -11.25)">
			<path fill="#005689" stroke="#005689" stroke-width="1.9046" stroke-opacity="0" d="M1156.517,66.253
				c11.835,0,21.431,9.593,21.431,21.428s-9.596,21.429-21.431,21.429c-11.833,0-21.428-9.595-21.428-21.429
				S1144.684,66.253,1156.517,66.253z"/>
		</g>
		<g transform="translate(1243.357142857143, 74.25)">
			<circle fill="#B51800" stroke="#800C0C" stroke-width="1.9046" stroke-opacity="0" cx="1156.517" cy="173.607" r="30.001"/>
		</g>
		<g transform="translate(1339, 69.75)">
			<circle fill="#B51800" stroke="#800C0C" stroke-width="1.9046" stroke-opacity="0" cx="1243.049" cy="178.107" r="38.57"/>
		</g>
		<g transform="translate(1339, -6.750000000000001)">
			<circle fill="#005689" stroke="#005689" stroke-width="1.9046" stroke-opacity="0" cx="1243.049" cy="83.181" r="12.859"/>
		</g>
	</g>
</g>
<text transform="matrix(1 0 0 1 30 30.6582)" font-family="'DS3DisplaySans'" font-size="24">W</text>
<text transform="matrix(1 0 0 1 38.6641 30.6582)" font-family="'DS3DisplaySans'" font-size="24" letter-spacing="45"> </text>
<text transform="matrix(1 0 0 1 151.3662 30.6582)" font-family="'DS3DisplaySans'" font-size="24">D</text>
<text transform="matrix(1 0 0 1 105.624 30.6582)" font-family="'DS3DisplaySans'" font-size="24" letter-spacing="49"> </text>
<text transform="matrix(1 0 0 1 278.0483 30.6582)" font-family="'DS3DisplaySans'" font-size="24">L</text>
<line fill="none" stroke="#767676" stroke-miterlimit="10" stroke-dasharray="3.0019,9.0059" x1="101" y1="49.658" x2="101" y2="2722.943"/>
<line fill="none" stroke="#767676" stroke-miterlimit="10" stroke-dasharray="3.0019,9.0059" x1="211" y1="49.658" x2="211" y2="2722.943"/>
<g>
	<g>
		<path fill="none" stroke="#000000" stroke-miterlimit="10" d="M78.242,1174.223c60.851-0.238,86.685-0.258,86.685,33.621v36.656"
			/>
		<g>
			<polygon points="80.06,1178.957 71.072,1174.641 79.302,1169.012 			"/>
		</g>
	</g>
</g>
<rect x="211" y="1058.844" fill="none" width="177" height="140"/>
<text transform="matrix(1 0 0 1 101 1284.3789)" fill="#767676" font-family="'DE3DisplayEgyptian'" font-size="16">Spurs 2 - 0 Arsenal </text>
<text transform="matrix(1 0 0 1 101 1303.5801)" fill="#767676" font-family="'DE3DisplayEgyptian'" font-size="16">FA Cup semi-final</text>
<text transform="matrix(1 0 0 1 101 1320.3789)" font-family="'DS3DisplaySans'" font-size="14">Guppy Arctic char wallago </text>
<text transform="matrix(1 0 0 1 101 1337.1797)" font-family="'DS3DisplaySans'" font-size="14">southern flounder porgy </text>
<text transform="matrix(1 0 0 1 101 1353.9805)" font-family="'DS3DisplaySans'" font-size="14">longjaw mudsucker shell-ear </text>
<text transform="matrix(1 0 0 1 101 1370.7793)" font-family="'DS3DisplaySans'" font-size="14">upside-down catfish Atlantic </text>
<text transform="matrix(1 0 0 1 101 1387.5801)" font-family="'DS3DisplaySans'" font-size="14">eel.</text>
<g>
	
		<image overflow="visible" enable-background="new    " width="451" height="662" id="_x38_K1DSX" xlink:href="CAA5921B725E8012.jpg"  transform="matrix(0.2443 0 0 0.2443 104.9121 1398.7002)">
	</image>
</g>
</svg>
